<?xml version="1.0" encoding="utf-8"?>
<!-- Generator: Adobe Illustrator 25.0.1, SVG Export Plug-In . SVG Version: 6.00 Build 0)  -->
<svg version="1.1" id="Capa_1" xmlns="http://www.w3.org/2000/svg" xmlns:xlink="http://www.w3.org/1999/xlink" x="0px" y="0px"
	 viewBox="0 0 58 58" style="enable-background:new 0 0 58 58;" xml:space="preserve">
<g>
	<path d="M33.4,56.97c0-0.23,0-0.41,0-0.59c0-6.16,0.01-12.32-0.01-18.48c0-0.52,0.16-0.61,0.63-0.6c1.83,0.03,3.67,0,5.5,0.02
		c0.32,0,0.46-0.05,0.51-0.42c0.35-2.46,0.74-4.92,1.14-7.38c0.07-0.43-0.16-0.34-0.39-0.34c-2.29,0-4.58-0.01-6.87,0.01
		c-0.39,0-0.53-0.06-0.52-0.49c0.03-1.59,0.01-3.19,0.01-4.78c0.02-2.77,1.58-4.35,4.37-4.4c1.14-0.02,2.27-0.01,3.41,0
		c0.28,0,0.37-0.06,0.37-0.36c-0.01-2.07-0.01-4.14-0.01-6.21c0-0.17,0.06-0.35-0.23-0.39c-2.98-0.4-5.96-0.86-8.96-0.21
		c-4.17,0.9-6.87,3.84-7.54,8.06c-0.3,1.88-0.17,3.77-0.2,5.65c-0.01,0.9-0.02,1.8,0.01,2.69c0.01,0.36-0.09,0.45-0.45,0.45
		c-2.07-0.02-4.14,0-6.21-0.02c-0.41,0-0.51,0.1-0.51,0.51c0.02,2.4,0.02,4.8,0,7.2c0,0.36,0.09,0.45,0.45,0.45
		c2.09-0.02,4.18,0,6.27-0.01c0.29,0,0.45,0.01,0.45,0.39c-0.01,6.34-0.01,12.68-0.01,19.03c0,0.07-0.01,0.14-0.02,0.22
		C11.9,55.14,0.31,43.59,0.87,28.08C1.4,13.61,12.92,1.73,27.69,1.06c15.16-0.7,27.49,10.49,29.24,24.58
		C58.87,41.25,47.88,54.72,33.4,56.97z"/>
</g>
</svg>
