<?xml version="1.0" encoding="utf-8"?>
<!-- Generator: Adobe Illustrator 25.0.1, SVG Export Plug-In . SVG Version: 6.00 Build 0)  -->
<svg version="1.1" id="Capa_1" xmlns="http://www.w3.org/2000/svg" xmlns:xlink="http://www.w3.org/1999/xlink" x="0px" y="0px"
	 viewBox="0 0 58 58" style="enable-background:new 0 0 58 58;" xml:space="preserve">
<style type="text/css">
	.st0{fill:#010101;}
</style>
<g>
	<path class="st0" d="M29.01,0.84c15.54,0.01,28.17,12.66,28.14,28.18c-0.03,15.54-12.68,28.17-28.2,28.13
		C13.43,57.11,0.85,44.51,0.84,29C0.84,13.47,13.49,0.83,29.01,0.84z M46.6,28.58c-0.06-2.69,0.15-5.81-0.34-8.9
		c-0.4-2.57-1.59-4.69-3.71-6.24c-1.84-1.35-3.97-1.81-6.2-1.92c-4.05-0.2-8.1-0.1-12.15-0.09c-1.26,0-2.53,0.05-3.79,0.2
		c-2.62,0.31-4.9,1.29-6.63,3.36c-1.57,1.89-2.15,4.13-2.27,6.51c-0.22,4.21-0.12,8.43-0.09,12.64c0.01,1.41,0.05,2.82,0.3,4.22
		c0.45,2.54,1.59,4.65,3.69,6.2c1.83,1.34,3.93,1.82,6.14,1.93c4.12,0.21,8.24,0.11,12.37,0.09c1.21,0,2.42-0.05,3.62-0.19
		c2.64-0.31,4.94-1.29,6.67-3.39c1.58-1.91,2.12-4.17,2.26-6.57C46.63,33.95,46.59,31.48,46.6,28.58z"/>
	<path class="st0" d="M14.58,28.98c0.02-2.51-0.04-5.02,0.13-7.53c0.13-1.95,0.62-3.75,2.17-5.11c1.28-1.12,2.82-1.54,4.45-1.61
		c5.11-0.23,10.22-0.24,15.33,0c2.14,0.1,4.06,0.78,5.37,2.63c0.86,1.21,1.18,2.6,1.24,4.04c0.22,5.07,0.23,10.15,0,15.22
		c-0.1,2.16-0.76,4.1-2.63,5.43c-1.21,0.86-2.6,1.18-4.04,1.24c-5.07,0.22-10.15,0.23-15.22,0c-2.16-0.1-4.1-0.76-5.43-2.63
		c-0.88-1.24-1.16-2.67-1.26-4.14C14.54,34,14.6,31.49,14.58,28.98z M38.03,29.02c0.01-4.98-4.01-9.03-8.98-9.05
		c-5.01-0.02-9.07,4.01-9.08,9c-0.01,4.98,4.01,9.03,8.98,9.05C33.96,38.04,38.02,34.02,38.03,29.02z M38.41,17.49
		c-1.13-0.01-2.11,0.95-2.13,2.09c-0.02,1.15,0.98,2.15,2.13,2.14c1.14-0.01,2.1-0.98,2.1-2.12C40.51,18.47,39.55,17.5,38.41,17.49z
		"/>
	<path class="st0" d="M23.15,28.96c0.02-3.26,2.65-5.84,5.9-5.82c3.26,0.03,5.84,2.66,5.8,5.92c-0.04,3.24-2.64,5.8-5.87,5.79
		C25.72,34.84,23.13,32.22,23.15,28.96z"/>
</g>
</svg>
