<?xml version="1.0" encoding="utf-8"?>
<!-- Generator: Adobe Illustrator 25.0.1, SVG Export Plug-In . SVG Version: 6.00 Build 0)  -->
<svg version="1.1" id="Capa_1" xmlns="http://www.w3.org/2000/svg" xmlns:xlink="http://www.w3.org/1999/xlink" x="0px" y="0px"
	 viewBox="0 0 92 92" style="enable-background:new 0 0 92 92;" xml:space="preserve">
<style type="text/css">
	.st0{fill:#FFFFFF;}
	.st1{fill-rule:evenodd;clip-rule:evenodd;}
</style>
<g>
	<path class="st0" d="M56.52,31.92c3.05,0,5.99,0,8.97,0c-1.37,13.94-2.73,27.82-4.09,41.72c-10.22,0-20.38,0-30.61,0
		c-1.43-13.89-2.85-27.77-4.29-41.74c0.27,0,0.49,0,0.71,0c2.52,0,5.03-0.02,7.55,0.01c0.6,0.01,0.74-0.19,0.73-0.79
		c-0.04-1.58-0.05-3.15,0.37-4.7c1.36-5.04,5.81-8.36,10.84-8.04c4.86,0.31,8.91,4.15,9.66,9.23c0.17,1.13,0.11,2.29,0.16,3.44
		C56.53,31.31,56.52,31.56,56.52,31.92z M61.2,36.03c-10.15,0-20.25,0-30.4,0c1.17,11.2,2.34,22.35,3.5,33.5c7.84,0,15.61,0,23.4,0
		C58.87,58.36,60.03,47.22,61.2,36.03z M39.39,31.85c4.42,0,8.79,0,13.21,0c0-0.97,0.03-1.91-0.01-2.84
		c-0.14-3.19-2.39-5.88-5.33-6.42c-3.2-0.58-6.17,1.09-7.39,4.13C39.21,28.38,39.41,30.1,39.39,31.85z"/>
	<path class="st0" d="M55.13,62.45c0,1.35,0,2.67,0,4.02c-5.97,0-11.9,0-17.87,0c0-1.34,0-2.65,0-4.02
		C43.2,62.45,49.13,62.45,55.13,62.45z"/>
</g>
<path id="Logo_1_" class="st1" d="M57.48,22.92h11.38l-7.94,11.63l8.29-0.02v34.56H57.48V22.92z M22.79,22.92h11.38l-7.94,11.63
	l8.29-0.02v34.56H22.79V22.92z M40.13,22.92h11.38l-7.94,11.63l8.29-0.02v34.56H40.13V22.92z M46,0.79
	c25.39,0,45.98,20.24,45.98,45.21S71.39,91.21,46,91.21C20.61,91.21,0.02,70.97,0.02,46S20.61,0.79,46,0.79z"/>
</svg>
