<?xml version="1.0" encoding="utf-8"?>
<!-- Generator: Adobe Illustrator 24.0.2, SVG Export Plug-In . SVG Version: 6.00 Build 0)  -->
<svg version="1.1" id="Capa_1" xmlns="http://www.w3.org/2000/svg" xmlns:xlink="http://www.w3.org/1999/xlink" x="0px" y="0px"
	 viewBox="0 0 795.4 322.3" style="enable-background:new 0 0 795.4 322.3;" xml:space="preserve">
<style type="text/css">
	.st0{opacity:0.23;fill-rule:evenodd;clip-rule:evenodd;fill:#FFFFFF;}
	.st1{fill-rule:evenodd;clip-rule:evenodd;fill:#FFFFFF;stroke:#000000;stroke-miterlimit:10;}
	.st2{fill:#FFFFFF;stroke:#000000;stroke-miterlimit:10;}
</style>
<g>
	<path class="st0" d="M67.1,248.3c5.7-10,11.3-19.8,17.6-29.7c6.2-9.7,12.5-19.2,19-28.7c6.3-9.1,13-18.3,19.4-27.1
		c6.4-8.9,13.2-17.6,19.6-26c3.1-4,6.2-7.4,8.8-10.2c2.6-2.8,5.3-5.1,7.9-6.9c2.7-1.8,5.5-3.5,8.4-4.6c3.2-1.3,6.4-2.3,9.9-3
		c7.2-1.5,14.2-3,21.3-4.5c-26-16.3-45.3-38.9-48.3-77.4c-41,22.8-64.6,48.8-54.9,81.1c-4.3-4.3-8.6-8.6-12.8-12.8
		C33.4,134.7,0,215.7,47.7,263.8c8-5.2,16-10.3,24-15.5C70.2,248.4,68.6,248.3,67.1,248.3 M169.4,135.3
		c-5.7,7.6-11.5,15.3-17.1,23.1c-5.7,7.9-11.4,15.9-17,24.1c-3.7,5.4-4.3,8.1-1.4,7.8c1.3-0.1,2.9-0.9,4.4-2.3
		c1.5-1.4,3.1-3.6,5.1-6.4c5.9-8.4,11.7-16.5,17.5-24.5c5.7-7.9,11.6-15.6,17.3-23.3c3.7-5,4-7.1,1.1-6.6
		C176.4,127.7,173.1,130.4,169.4,135.3z M477.1,143.6c-3.3,6.9-8.9,18-14.6,29.5c30.1-3.6,60.8-6.7,91.8-9.5
		c0.9-14,1.7-10.1,2.6-24.1C533.8,140.8,506.4,142.5,477.1,143.6z M391.1,164.2c-3.6,6.9-7.2,12.9-11.1,17.8
		c-0.7,0.9-1.4,1.7-2.2,2.6c4.4-0.7,8.8-1.4,13.3-2.1c6.4-12.9,13.1-26.3,18.7-37.4c-2.9,0-5.7,0-8.6,0
		C397.9,151.3,394.5,157.7,391.1,164.2z M336.3,142.7c-4.2,7.1-8.4,14.2-12.7,21.6c-4.3,7.4-4.1,11.1,0.6,10.8
		c2.5-0.2,4.8-1.4,6.9-3.2c2.3-2,4.4-5,6.7-8.9c3.8-6.6,7.6-13.1,11.3-19.4C344.9,143.3,340.6,143,336.3,142.7z M113.7,214.9
		c-7,11.2-13.6,22.5-19.7,33.8c-5.2,0-10.2-0.1-15.1-0.2c-5.4,10.7-4.9,25.8,3.3,46.7c35.5-31.6,83.8-55.7,140.8-74.4
		c1-2.1,2.1-4.3,3.1-6.4c6.3-0.4,12.7-0.9,19.2-1.3c-0.2,0.3-0.3,0.6-0.5,0.9c9.5-2.8,19.3-5.5,29.2-8c-1.7-0.2-3.1-0.5-4.4-0.9
		c-3.1-1-5.1-2.8-6-5.3c-0.9-2.5-0.8-5.8,0.7-9.9c1.5-4.2,4.1-9.2,7.7-15.1c7.7-12.5,15.2-24.5,22.6-36.1c0.1-0.1,0.2-0.3,0.2-0.4
		c-1.8-0.3-3.6-0.5-5.5-0.8c-3.5,5.4-6.9,10.8-10.4,16.3c-5.4,8.5-10.9,17.2-16.3,26.1c-5.5,9-10.8,18.1-16.2,27.5
		c-22.6,1.1-43.2,1.9-62.8,3.1c-8.2,0.5-12.8-1.9-13-7.8c-0.2-5.7,4.1-16.8,14.9-32.2c16-22.8,33.2-35.2,49.5-38.3
		c5.3-1,10.6-1.9,15.9-2.7c-3.9-1.1-7.8-2.2-11.5-3.4c-8.3,1.4-16.5,2.8-24.4,4.3c1.8-2.6,3.6-5.1,5.4-7.6c0.7-1,1.4-1.9,2.1-2.9
		c-1.5-0.6-2.9-1.2-4.3-1.9c-1.1,1.6-2.3,3.3-3.7,5.3c-7,9.8-14.3,19.8-21.6,30c-7.4,10.4-14.8,21-22.1,32c-3.2,4.8-6.2,9-9.2,12.6
		c-2.9,3.5-6,6.4-9,8.7c-2.9,2.2-6.2,3.9-9.6,5c-3.4,1.1-6.7,1.7-10.7,2C125.9,214.2,119.8,214.5,113.7,214.9z M223.4,179
		c2-1.7,4.2-4.3,6.5-7.9c4.2-6.5,8.4-12.9,12.4-19.2c-2.4,1.3-4.7,2.5-7,3.6c-3.4,1.7-6.2,3.5-8.6,5.5c-2.3,2-4.6,4.9-7.2,8.6
		c-0.6,0.9-1.1,1.8-1.7,2.7c-4.3,6.7-4.4,9.8-0.6,9.5C219.2,181.7,221.4,180.7,223.4,179z"/>
	<path class="st1" d="M615.6,173.1c4.1,1.1,15.7,1.2,20.4,0.7c26-2.8,14.4-10.6,29.2-9.2c29.1,2.8,89-10.7,105.6-28.8
		c-10.8-9.5-30.3-12.9-40.7-13.8c-20.2-1.7-41.6-1.3-61.7,1.7c-18.7,2.8-11.7,2.2-19.8-1c-7.3-2.8-36.4-2.5-37.7,1.4l8.8,8.4
		c-5,1-8.6,3.2-12.5,10.4c13.5,1.4,13.5,6.4,2.5,12.8c5.3,4.4,3.9,5.4,12,8.1L615.6,173.1z"/>
	<path class="st2" d="M496.5,90.1c-1.7,4-3.4,7.8-5.2,11.9c6.8-1,13.7-2,20.6-2.9c1.7-4.1,3.3-8.1,5-12.2c3.5-8.4,1.7-11.9-5.3-10.7
		c-3.6,0.7-6.4,2.1-8.7,4.2C500.6,82.5,498.4,85.8,496.5,90.1 M554.1,172c8.6-0.5-28.4,61.3-32.4,66.9c-4.1,5.6-8.9,10.3-14.6,13.9
		c-5.7,3.7-12.4,6.3-20.4,8.1c-7.1,1.6-15.9,2.7-25.6,3c-24.7,0.7-48.2,1.4-70.5,2.1c-8.4,0.3-14.7-0.2-19.5-1.5
		c-4.7-1.2-7.8-3.4-9.4-6.3c-1.6-3-2.1-6.9-0.9-11.9c1.1-4.8,3.5-10.7,7.1-17.7c7.5-14.4,46.7-93.5,53.8-107
		c6.9-13.2,13.4-25.7,19.7-38c2.9-5.6,6-10.5,9.1-14.5c3.2-4.1,6.9-7.5,10.9-10.4c4-2.9,8.8-5.3,14.4-7.5c5.5-2.1,12.1-4,19.9-5.7
		c20.8-4.5,42.8-9.4,65.9-14.7c8.8-2,16.6-3.3,22.9-3.6c6.2-0.2,10.9,0.7,14.3,2.8c3.5,2,5.4,5.3,5.5,9.8c0.1,4.7-1.1,10.3-3.5,17.2
		c-2.9,8.4-6,16.8-9.1,25.2c-3.2,8.8-15.2,37.8-18.6,46.8c-16.8,1.5-33,3-48.8,4.5c-16.8,1.6-33,3.3-48.6,4.9
		c-4.9,11-33.5,67-38.7,78.5c-4,8.8-2.8,13.1,3.5,12.7c3.5-0.2,6.6-1.4,9.2-3.6c2.6-2.2,22.3-49.2,27.5-49.5L554.1,172z"/>
	<path class="st2" d="M391.1,164.2c-3.6,6.9-7.2,12.9-11.1,17.8c-4,4.9-8.2,8.9-13.1,12.2c-4.7,3.2-9.8,5.7-15.3,7.2
		c-5.4,1.5-11.8,2.4-18.3,2.7c-17.4,0.7-34.3,1.4-50.2,2.1c-5.9,0.3-10.4-0.1-13.6-1.2c-3.1-1-5.1-2.8-6-5.3
		c-0.9-2.5-0.8-5.8,0.7-9.9c1.5-4.2,4.1-9.2,7.7-15.1c7.7-12.5,15.2-24.5,22.6-36.1c7.2-11.3,14.3-22.3,21.4-33
		c6.3-9.6,12.7-16.7,19.5-21.4c3.4-2.3,7.5-4.3,12.3-6.1c2-0.7,5.2-1.8,9.9-3c4.8-1.2,10.7-2.5,17.8-4c11.8-2.5,23.8-5,36-7.6
		c6.6-1.4,12-2,15.9-2c4.2,0,7.2,0.7,8.9,2.4c1.8,1.7,2.3,4.1,1.8,7.6c-0.5,3.5-2.4,8-5.2,13.5c-3.4,6.7-7.1,13.6-10.6,20.6
		c-19.3,2.9-38,5.7-55.8,8.4c2.8-4.7,5.4-9.4,8.3-14.2c3.7-6.2,3.1-9-1.6-8.1c-2.4,0.4-4.5,1.4-6.5,3.1c-2,1.6-3.9,4.1-5.9,7.5
		c-5.8,9.6-11.8,19.5-17.9,29.7c-6.3,10.5-12.5,21.2-19,32.3c-4.3,7.4-4.1,11.1,0.6,10.8c2.5-0.2,4.8-1.4,6.9-3.2
		c2.3-2,4.4-5,6.7-8.9c4.5-7.9,9-15.5,13.4-23c18.1-2.2,36.8-4.5,56.4-6.7C402.3,143.2,396.7,153.5,391.1,164.2"/>
	<path class="st2" d="M229.9,171.1c4.2-6.5,8.4-12.9,12.4-19.2c-2.4,1.3-4.7,2.5-7,3.6c-3.4,1.7-6.2,3.5-8.6,5.5
		c-2.3,2-4.6,4.9-7.2,8.6c-0.6,0.9-1.1,1.8-1.7,2.7c-4.3,6.7-4.4,9.8-0.6,9.5c2-0.2,4.2-1.2,6.2-2.8
		C225.4,177.3,227.6,174.7,229.9,171.1 M258.1,128.4c2.2-3.4,4.6-6.6,6.9-9.9c2.4-3.4,3.5-5.7,3.5-6.7c0-1.1-1.3-1.4-3.4-1
		c-2.1,0.4-4,1.2-5.9,2.8c-1.7,1.4-3.6,4-5.8,7c-0.9,1.2-1.7,2.4-2.6,3.6c-12.1,2.1-24.1,4.2-35.6,6.3c1.8-2.6,3.6-5.1,5.4-7.6
		c3.3-4.5,6.2-8.2,9.2-11.4c3-3.2,6-5.7,9.2-7.9c3.2-2.2,6.6-3.9,10.4-5.4c3.7-1.4,7.8-2.6,12.3-3.6c11.8-2.5,23.9-4.9,36.6-7.6
		c4.9-1,9-1.6,11.9-1.5c3.1,0.1,4.9,1,5.8,2.4c1,1.6,1,3.8-0.2,6.9c-1.1,3-3.3,7-6.3,11.7c-4.9,7.6-9.9,15.3-15,23
		c-5.2,7.9-10.3,16-15.6,24.2c-5.4,8.5-10.9,17.2-16.3,26.1c-5.5,9-10.8,18.1-16.2,27.5c-22.6,1.1-43.2,1.9-62.8,3.1
		c-8.2,0.5-12.8-1.9-13-7.8c-0.2-5.7,4.1-16.8,14.9-32.2c16-22.8,33.2-35.2,49.5-38.3C242.7,130.8,250.2,129.7,258.1,128.4z"/>
	<path class="st2" d="M169.4,135.3c-5.7,7.6-11.5,15.3-17.1,23.1c-5.7,7.9-11.4,15.9-17,24.1c-3.7,5.4-4.3,8.1-1.4,7.8
		c1.3-0.1,2.9-0.9,4.4-2.3c1.5-1.4,3.1-3.6,5.1-6.4c5.9-8.4,11.7-16.5,17.5-24.5c5.7-7.9,11.6-15.6,17.3-23.3c3.7-5,4-7.1,1.1-6.6
		C176.4,127.7,173.1,130.4,169.4,135.3 M94,248.6c-9.5-0.1-18.2-0.2-26.9-0.3c5.7-10,11.3-19.8,17.6-29.7c6.2-9.7,12.5-19.2,19-28.7
		c6.3-9.1,13-18.3,19.4-27.1c6.4-8.9,13.2-17.6,19.6-26c3.1-4,6.2-7.4,8.8-10.2c2.6-2.8,5.3-5.1,7.9-6.9c2.7-1.8,5.5-3.5,8.4-4.6
		c3.2-1.3,6.4-2.3,9.9-3c10.4-2.1,20.5-4.4,30.9-6.5c4.3-0.9,7.5-1.2,9.9-1c2.1,0.2,3.7,0.9,4.2,2.4c0.5,1.3,0.2,3.4-1.1,6.1
		c-1.4,2.7-3.7,6-6.8,10.4c-7,9.8-14.3,19.8-21.6,30c-7.4,10.4-14.8,21-22.1,32c-3.2,4.8-6.2,9-9.2,12.6c-2.9,3.5-6,6.4-9,8.7
		c-2.9,2.2-6.2,3.9-9.6,5c-3.4,1.1-6.7,1.7-10.7,2c-6.5,0.4-12.7,0.8-18.8,1.1C106.8,226,100.1,237.3,94,248.6z"/>
	<path class="st2" d="M348.4,247c-1.4,2.2-3,4.1-4.5,5.6c-1.5,1.5-3.3,2.7-5.2,3.7c-1.9,0.9-4.1,1.6-6.4,2c-2.4,0.4-5,0.6-8.1,0.6
		c-7.9,0.1-15.7,0.1-23.3,0.1c-2.8,0-5.1-0.2-6.8-0.5c-1.7-0.4-2.9-1-3.5-1.8c-0.7-0.9-0.9-2-0.6-3.4c0.3-1.4,1.1-3.2,2.3-5.3
		c1.2-2,2.3-4.1,3.5-6.1c7.8-0.2,15.8-0.5,24-0.7c-0.9,1.4-1.7,2.8-2.6,4.3c-1.6,2.6-1.2,3.9,1,3.8c1.2,0,2.2-0.3,3.1-1
		c0.9-0.6,1.8-1.6,2.6-3c0.3-0.5,0.5-0.9,0.8-1.4c1.4-2.3,0.6-4-2.6-4.9c-4-1.2-7.9-2.2-11.8-3.3c-3.6-1.1-5.7-2.3-6.3-3.8
		c-0.6-1.5,0-3.7,1.8-6.8c0.9-1.6,1.8-3.3,2.8-4.9c1.3-2.2,2.6-4.2,4.1-5.7c1.5-1.6,3.2-2.9,4.9-3.9c1.9-1.1,4-1.9,6.4-2.4
		c2.3-0.6,5.1-1,8.2-1.2c8.2-0.6,16.6-1.1,25.2-1.7c3.3-0.2,6-0.2,8.1,0.1c2.1,0.3,3.5,0.9,4.3,1.9c0.8,1,1,2.2,0.6,3.9
		c-0.4,1.6-1.4,3.6-2.9,6c-0.8,1.3-1.6,2.5-2.4,3.8c-9.1,0.5-17.9,0.9-26.6,1.3c0.3-0.5,0.6-0.9,0.8-1.4c1.7-2.8,1.3-4.1-1.1-4
		c-1,0.1-2,0.4-3,1c-1,0.6-1.8,1.4-2.3,2.2c-0.3,0.6-0.5,1.1-0.7,1.5c-0.1,0.4-0.1,0.8,0.2,1.2c0.2,0.4,0.7,0.7,1.4,1
		c0.7,0.3,1.8,0.6,3,0.9c3.1,0.8,6.2,1.7,9.3,2.5c4.9,1.4,7.8,3.1,8.6,4.9c0.9,1.8,0.2,4.6-2.2,8.3
		C351.1,242.7,349.7,244.9,348.4,247 M253.7,223.2c1.1-2.1,2.2-3.9,3.4-5.3c1.3-1.5,2.7-2.7,4.2-3.6c1.5-1,3.4-1.7,5.4-2.2
		c2.1-0.5,4.4-0.9,7.1-1.1c7.2-0.5,14.6-1,22.1-1.5c2.9-0.2,5.2-0.2,7,0.1c1.8,0.3,3,0.9,3.7,1.8c0.7,0.9,0.9,2.1,0.6,3.6
		c-0.3,1.5-1.1,3.4-2.4,5.5c-2.7,4.7-5.4,9.4-8,14.1c-2.6,4.6-5.2,9.1-7.8,13.6c-1.2,2.1-2.4,3.8-3.7,5.2c-1.3,1.4-2.8,2.5-4.4,3.4
		c-1.6,0.9-3.5,1.5-5.6,1.9c-2,0.4-4.3,0.6-7,0.6c-6.8,0-13.6,0.1-20.2,0.1c-2.5,0-4.4-0.1-5.9-0.5c-1.5-0.3-2.5-0.9-3.1-1.7
		c-0.6-0.8-0.8-1.9-0.6-3.2c0.2-1.3,0.9-3,1.9-4.9c2.2-4.2,4.4-8.5,6.6-12.7C249.2,232,251.5,227.7,253.7,223.2z M274.2,224.2
		c-2.1,3.9-4.2,7.7-6.2,11.5c-2,3.7-4,7.5-6,11.2c-1.3,2.4-1,3.6,1,3.6c1,0,1.9-0.3,2.7-0.9c0.8-0.6,1.5-1.5,2.2-2.8
		c2-3.7,4.1-7.5,6.1-11.2c2.1-3.8,4.2-7.7,6.3-11.5c1.4-2.6,1.1-3.8-1-3.7c-1.1,0.1-2,0.4-2.8,1
		C275.7,221.8,274.9,222.8,274.2,224.2z M204.3,259.6c1.7-3.6,3.5-7.2,5.2-10.9c1.7-3.7,3.5-7.4,5.3-11.1c1.8-3.8,3.7-7.6,5.5-11.5
		c1.8-3.9,3.7-7.8,5.6-11.7c6.3-0.4,12.7-0.9,19.2-1.3c-0.6,1.3-1.3,2.6-1.9,3.8c3.8-3.2,8.2-4.8,13.1-4.7c-1.2,2.4-2.4,4.7-3.6,7
		c-1.2,2.3-2.4,4.6-3.5,6.9c-6.5,0.4-11.5,3.4-14.6,9.2c-2.2,4.1-4.1,8.2-6.2,12.3c-2,4-4,8-6,11.9
		C216.3,259.5,210.2,259.5,204.3,259.6z"/>
	<path class="st2" d="M42.6,219.1c-4.5,0.3-6.5-1.3-6.3-5c0.2-3.5,3.6-9.6,9.6-18.2c4.8-6.9,9.7-13.7,14.5-20.4
		c7.3-1.2,15.6-2.4,23.7-3.7c-2,2.7-3.8,5.5-5.8,8.3c-4.2,5.6-5.2,8.2-3.2,8c1.1-0.1,2.4-1,3.9-2.5c1.5-1.5,3.7-3.8,6.2-7.1
		c1.3-1.8,2.2-3.4,3-4.6c0.7-1.1,1.1-2.2,1.5-3c0.4-0.9,0.5-1.4,0.4-2.1c-0.1-0.5-0.3-1.2-0.7-1.7c-2.7-3.3-5.2-6.5-7.7-9.6
		c-1.6-2-2.1-4.6-1-7.5c1.2-2.9,4-7.2,7.9-12.4c2.8-3.7,5.8-7.6,8.5-11.2c4.8-6.5,9.8-11.4,14.8-15.3c5.1-3.9,10.3-6.2,15.7-7.4
		c8.8-2,17.7-4.3,27.1-6.5c5.8-1.3,9-0.5,9.4,2.1c0.5,2.7-1.9,7.5-7.2,14.3c-3.4,4.4-6.8,8.8-10.3,13.2c-9.5,2-18.8,3.8-27.5,5.5
		c0.3-0.5,0.6-0.9,0.9-1.3c3.9-4.9,4.6-7.1,2.4-6.6c-1,0.2-2.2,0.9-3.4,2c-1.2,1.1-2.6,2.4-3.8,3.9c-0.6,0.8-1,1.5-1.4,2
		c-0.5,0.6-0.6,1.1-0.7,1.6c0,0.5,0,1,0.1,1.5c0.1,0.5,0.5,1,1,1.5c3,3.5,6.2,7.1,9.6,11.1c0.6,0.7,1,1.8,0.9,2.9
		c-0.1,1.2-0.6,2.7-1.5,4.5c-0.9,1.9-2,4.2-3.8,6.9c-1.8,2.8-4,6.2-6.7,9.9c-3.4,4.7-6.8,9.3-10,13.9c-7.8,11.3-14.5,19.1-20,23.8
		c-5.4,4.7-10.7,7.2-16.3,7.5C58.1,218.1,50.2,218.6,42.6,219.1"/>
</g>
</svg>
